ffmpeg started on 2025-05-02 at 14:22:12
Report written to "D:\Convert\FFMetrics\reports\psnr_report-6.txt"
Log level: 32
Command line:
ffmpeg -hide_banner -nostdin -i "G:\\\xc0\xed\xe8\xec\xe5\\\xce\xed\xe3\xee\xe8\xed\xe3\xe8\\!_35_\xcb\xe5\xf2\xee_2024\\JamClub\\\xcf\xee\xf7\xe5\xec\xf3 \xe2\xf1\xe5 \xe7\xe0\xe1\xfb\xeb\xe8 \xec\xee\xe9 \xec\xe8\xf0\\JamClub_Naze_Boku_no_Sekai_o_Dare_mo_Oboeteinai_no_ka_08_1080p_HEVC.mkv" -i "G:\\\xc0\xed\xe8\xec\xe5\\\xce\xed\xe3\xee\xe8\xed\xe3\xe8\\!_35_\xcb\xe5\xf2\xee_2024\\JamClub\\\xcf\xee\xf7\xe5\xec\xf3 \xe2\xf1\xe5 \xe7\xe0\xe1\xfb\xeb\xe8 \xec\xee\xe9 \xec\xe8\xf0\\JamClub_Naze_Boku_no_Sekai_o_Dare_mo_Oboeteinai_no_ka_08_1080p.mp4" -lavfi "[0:v]settb=AVTB,setpts=PTS-STARTPTS,format=pix_fmts=yuv420p10,fps=24000/1001,scale=1920:1080:flags=bicubic[main];[1:v]settb=AVTB,setpts=PTS-STARTPTS,format=pix_fmts=yuv420p,fps=24000/1001,scale=1920:1080:flags=bicubic[ref];[main][ref]psnr=eof_action=endall:stats_file='D\\:/Convert/FFMetrics/logs/psnr_logfile-6.txt'" -f null -
Input #0, matroska,webm, from 'G:\Аниме\Онгоинги\!_35_Лето_2024\JamClub\Почему все забыли мой мир\JamClub_Naze_Boku_no_Sekai_o_Dare_mo_Oboeteinai_no_ka_08_1080p_HEVC.mkv':
  Metadata:
    COMPATIBLE_BRANDS: isomiso2avc1mp41
    MAJOR_BRAND     : isom
    MINOR_VERSION   : 512
    ENCODER         : Lavf61.7.100
  Duration: 00:24:02.37, start: -0.001000, bitrate: 1481 kb/s
  Stream #0:0: Video: hevc (Main 10), yuv420p10le(tv, bt709, progressive), 1920x1080 [SAR 1:1 DAR 16:9], 23.98 fps, 23.98 tbr, 1k tbn (default)
      Metadata:
        HANDLER_NAME    : VideoHandler
        VENDOR_ID       : [0][0][0][0]
        ENCODER         : Lavc61.19.100 libx265
        BPS             : 1284124
        DURATION        : 00:24:02.232708333
        NUMBER_OF_FRAMES: 34579
        NUMBER_OF_BYTES : 231500701
        _STATISTICS_WRITING_APP: mkvpropedit v66.0.0 ('Josie') 64-bit
        _STATISTICS_WRITING_DATE_UTC: 2025-04-30 12:28:21
        _STATISTICS_TAGS: BPS DURATION NUMBER_OF_FRAMES NUMBER_OF_BYTES
  Stream #0:1(eng): Audio: aac (LC), 48000 Hz, stereo, fltp (default)
      Metadata:
        HANDLER_NAME    : SoundHandler
        VENDOR_ID       : [0][0][0][0]
        ENCODER         : Lavc61.19.100 aac
        BPS             : 193242
        DURATION        : 00:24:02.328000000
        NUMBER_OF_FRAMES: 67610
        NUMBER_OF_BYTES : 34839960
        _STATISTICS_WRITING_APP: mkvpropedit v66.0.0 ('Josie') 64-bit
        _STATISTICS_WRITING_DATE_UTC: 2025-04-30 12:28:21
        _STATISTICS_TAGS: BPS DURATION NUMBER_OF_FRAMES NUMBER_OF_BYTES
Input #1, mov,mp4,m4a,3gp,3g2,mj2, from 'G:\Аниме\Онгоинги\!_35_Лето_2024\JamClub\Почему все забыли мой мир\JamClub_Naze_Boku_no_Sekai_o_Dare_mo_Oboeteinai_no_ka_08_1080p.mp4':
  Metadata:
    major_brand     : isom
    minor_version   : 512
    compatible_brands: isomiso2avc1mp41
    encoder         : Lavf60.16.100
  Duration: 00:24:02.35, start: 0.000000, bitrate: 4079 kb/s
  Stream #1:0[0x1](und): Video: h264 (High) (avc1 / 0x31637661), yuv420p(progressive), 1920x1080 [SAR 1:1 DAR 16:9], 3881 kb/s, 23.98 fps, 23.98 tbr, 90k tbn (default)
      Metadata:
        handler_name    : VideoHandler
        vendor_id       : [0][0][0][0]
  Stream #1:1[0x2](eng): Audio: aac (LC) (mp4a / 0x6134706D), 48000 Hz, stereo, fltp, 191 kb/s (default)
      Metadata:
        handler_name    : SoundHandler
        vendor_id       : [0][0][0][0]
Stream mapping:
  Stream #0:0 (hevc) -> settb:default
  Stream #1:0 (h264) -> settb:default
  psnr:default -> Stream #0:0 (wrapped_avframe)
  Stream #0:1 -> #0:1 (aac (native) -> pcm_s16le (native))
Output #0, null, to 'pipe:':
  Metadata:
    COMPATIBLE_BRANDS: isomiso2avc1mp41
    MAJOR_BRAND     : isom
    MINOR_VERSION   : 512
    encoder         : Lavf61.7.100
  Stream #0:0: Video: wrapped_avframe, yuv420p10le(tv, bt709, progressive), 1920x1080 [SAR 1:1 DAR 16:9], q=2-31, 200 kb/s, 23.98 fps, 23.98 tbn
      Metadata:
        encoder         : Lavc61.19.100 wrapped_avframe
  Stream #0:1(eng): Audio: pcm_s16le, 48000 Hz, stereo, s16, 1536 kb/s (default)
      Metadata:
        HANDLER_NAME    : SoundHandler
        VENDOR_ID       : [0][0][0][0]
        _STATISTICS_TAGS: BPS DURATION NUMBER_OF_FRAMES NUMBER_OF_BYTES
        BPS             : 193242
        DURATION        : 00:24:02.328000000
        NUMBER_OF_FRAMES: 67610
        NUMBER_OF_BYTES : 34839960
        _STATISTICS_WRITING_APP: mkvpropedit v66.0.0 ('Josie') 64-bit
        _STATISTICS_WRITING_DATE_UTC: 2025-04-30 12:28:21
        encoder         : Lavc61.19.100 pcm_s16le
frame=  115 fps=0.0 q=-0.0 size=N/A time=00:00:04.79 bitrate=N/A speed= 9.3x    frame=  276 fps=269 q=-0.0 size=N/A time=00:00:11.51 bitrate=N/A speed=11.2x    frame=  481 fps=311 q=-0.0 size=N/A time=00:00:20.06 bitrate=N/A speed=  13x    frame=  702 fps=341 q=-0.0 size=N/A time=00:00:29.27 bitrate=N/A speed=14.2x    frame=  925 fps=359 q=-0.0 size=N/A time=00:00:38.58 bitrate=N/A speed=  15x    frame= 1181 fps=382 q=-0.0 size=N/A time=00:00:49.25 bitrate=N/A speed=15.9x    frame= 1365 fps=378 q=-0.0 size=N/A time=00:00:56.93 bitrate=N/A speed=15.8x    frame= 1607 fps=389 q=-0.0 size=N/A time=00:01:07.02 bitrate=N/A speed=16.2x    frame= 1838 fps=396 q=-0.0 size=N/A time=00:01:16.65 bitrate=N/A speed=16.5x    frame= 2109 fps=410 q=-0.0 size=N/A time=00:01:27.96 bitrate=N/A speed=17.1x    frame= 2368 fps=417 q=-0.0 size=N/A time=00:01:38.76 bitrate=N/A speed=17.4x    frame= 2575 fps=416 q=-0.0 size=N/A time=00:01:47.39 bitrate=N/A speed=17.4x    frame= 2744 fps=410 q=-0.0 size=N/A time=00:01:54.44 bitrate=N/A speed=17.1x    frame= 2915 fps=404 q=-0.0 size=N/A time=00:02:01.57 bitrate=N/A speed=16.9x    frame= 3142 fps=406 q=-0.0 size=N/A time=00:02:11.04 bitrate=N/A speed=16.9x    frame= 3328 fps=403 q=-0.0 size=N/A time=00:02:18.80 bitrate=N/A speed=16.8x    frame= 3523 fps=402 q=-0.0 size=N/A time=00:02:26.93 bitrate=N/A speed=16.8x    frame= 3720 fps=401 q=-0.0 size=N/A time=00:02:35.15 bitrate=N/A speed=16.7x    frame= 3884 fps=397 q=-0.0 size=N/A time=00:02:41.99 bitrate=N/A speed=16.5x    frame= 4055 fps=394 q=-0.0 size=N/A time=00:02:49.12 bitrate=N/A speed=16.4x    frame= 4221 fps=390 q=-0.0 size=N/A time=00:02:56.05 bitrate=N/A speed=16.3x    frame= 4405 fps=388 q=-0.0 size=N/A time=00:03:03.72 bitrate=N/A speed=16.2x    frame= 4619 fps=390 q=-0.0 size=N/A time=00:03:12.65 bitrate=N/A speed=16.2x    frame= 4884 fps=395 q=-0.0 size=N/A time=00:03:23.70 bitrate=N/A speed=16.5x    frame= 5078 fps=394 q=-0.0 size=N/A time=00:03:31.79 bitrate=N/A speed=16.4x    frame= 5280 fps=394 q=-0.0 size=N/A time=00:03:40.22 bitrate=N/A speed=16.4x    frame= 5501 fps=395 q=-0.0 size=N/A time=00:03:49.43 bitrate=N/A speed=16.5x    frame= 5712 fps=396 q=-0.0 size=N/A time=00:03:58.23 bitrate=N/A speed=16.5x    frame= 5901 fps=395 q=-0.0 size=N/A time=00:04:06.12 bitrate=N/A speed=16.5x    frame= 6084 fps=393 q=-0.0 size=N/A time=00:04:13.75 bitrate=N/A speed=16.4x    frame= 6285 fps=393 q=-0.0 size=N/A time=00:04:22.13 bitrate=N/A speed=16.4x    frame= 6497 fps=394 q=-0.0 size=N/A time=00:04:30.97 bitrate=N/A speed=16.4x    frame= 6699 fps=394 q=-0.0 size=N/A time=00:04:39.40 bitrate=N/A speed=16.4x    frame= 6904 fps=394 q=-0.0 size=N/A time=00:04:47.95 bitrate=N/A speed=16.4x    frame= 7150 fps=396 q=-0.0 size=N/A time=00:04:58.21 bitrate=N/A speed=16.5x    frame= 7330 fps=395 q=-0.0 size=N/A time=00:05:05.72 bitrate=N/A speed=16.5x    frame= 7497 fps=393 q=-0.0 size=N/A time=00:05:12.68 bitrate=N/A speed=16.4x    frame= 7728 fps=394 q=-0.0 size=N/A time=00:05:22.32 bitrate=N/A speed=16.5x    frame= 7918 fps=394 q=-0.0 size=N/A time=00:05:30.24 bitrate=N/A speed=16.4x    frame= 8142 fps=395 q=-0.0 size=N/A time=00:05:39.58 bitrate=N/A speed=16.5x    frame= 8388 fps=397 q=-0.0 size=N/A time=00:05:49.84 bitrate=N/A speed=16.6x    frame= 8593 fps=397 q=-0.0 size=N/A time=00:05:58.39 bitrate=N/A speed=16.5x    frame= 8807 fps=397 q=-0.0 size=N/A time=00:06:07.32 bitrate=N/A speed=16.6x    frame= 9016 fps=397 q=-0.0 size=N/A time=00:06:16.04 bitrate=N/A speed=16.6x    frame= 9263 fps=399 q=-0.0 size=N/A time=00:06:26.34 bitrate=N/A speed=16.6x    frame= 9520 fps=401 q=-0.0 size=N/A time=00:06:37.06 bitrate=N/A speed=16.7x    frame= 9766 fps=403 q=-0.0 size=N/A time=00:06:47.32 bitrate=N/A speed=16.8x    frame=10000 fps=404 q=-0.0 size=N/A time=00:06:57.08 bitrate=N/A speed=16.8x    frame=10269 fps=406 q=-0.0 size=N/A time=00:07:08.30 bitrate=N/A speed=16.9x    frame=10503 fps=407 q=-0.0 size=N/A time=00:07:18.06 bitrate=N/A speed=  17x    frame=10752 fps=409 q=-0.0 size=N/A time=00:07:28.44 bitrate=N/A speed=  17x    frame=11033 fps=411 q=-0.0 size=N/A time=00:07:40.16 bitrate=N/A speed=17.2x    frame=11287 fps=413 q=-0.0 size=N/A time=00:07:50.76 bitrate=N/A speed=17.2x    frame=11568 fps=415 q=-0.0 size=N/A time=00:08:02.48 bitrate=N/A speed=17.3x    frame=11838 fps=417 q=-0.0 size=N/A time=00:08:13.74 bitrate=N/A speed=17.4x    frame=12091 fps=419 q=-0.0 size=N/A time=00:08:24.29 bitrate=N/A speed=17.5x    frame=12311 fps=419 q=-0.0 size=N/A time=00:08:33.47 bitrate=N/A speed=17.5x    frame=12576 fps=420 q=-0.0 size=N/A time=00:08:44.52 bitrate=N/A speed=17.5x    frame=12740 fps=419 q=-0.0 size=N/A time=00:08:51.36 bitrate=N/A speed=17.5x    frame=12966 fps=419 q=-0.0 size=N/A time=00:09:00.79 bitrate=N/A speed=17.5x    frame=13209 fps=420 q=-0.0 size=N/A time=00:09:10.92 bitrate=N/A speed=17.5x    frame=13479 fps=421 q=-0.0 size=N/A time=00:09:22.18 bitrate=N/A speed=17.6x    frame=13738 fps=423 q=-0.0 size=N/A time=00:09:32.98 bitrate=N/A speed=17.6x    frame=13990 fps=424 q=-0.0 size=N/A time=00:09:43.49 bitrate=N/A speed=17.7x    frame=14196 fps=423 q=-0.0 size=N/A time=00:09:52.09 bitrate=N/A speed=17.7x    frame=14428 fps=424 q=-0.0 size=N/A time=00:10:01.76 bitrate=N/A speed=17.7x    frame=14662 fps=424 q=-0.0 size=N/A time=00:10:11.52 bitrate=N/A speed=17.7x    frame=14909 fps=425 q=-0.0 size=N/A time=00:10:21.82 bitrate=N/A speed=17.7x    frame=15122 fps=425 q=-0.0 size=N/A time=00:10:30.71 bitrate=N/A speed=17.7x    frame=15359 fps=425 q=-0.0 size=N/A time=00:10:40.59 bitrate=N/A speed=17.7x    frame=15627 fps=427 q=-0.0 size=N/A time=00:10:51.77 bitrate=N/A speed=17.8x    frame=15899 fps=428 q=-0.0 size=N/A time=00:11:03.12 bitrate=N/A speed=17.9x    frame=16173 fps=429 q=-0.0 size=N/A time=00:11:14.54 bitrate=N/A speed=17.9x    frame=16431 fps=430 q=-0.0 size=N/A time=00:11:25.30 bitrate=N/A speed=17.9x    frame=16696 fps=431 q=-0.0 size=N/A time=00:11:36.36 bitrate=N/A speed=  18x    frame=16967 fps=433 q=-0.0 size=N/A time=00:11:47.66 bitrate=N/A speed=  18x    frame=17227 fps=434 q=-0.0 size=N/A time=00:11:58.50 bitrate=N/A speed=18.1x    frame=17478 fps=434 q=-0.0 size=N/A time=00:12:08.97 bitrate=N/A speed=18.1x    frame=17745 fps=435 q=-0.0 size=N/A time=00:12:20.11 bitrate=N/A speed=18.2x    frame=18007 fps=436 q=-0.0 size=N/A time=00:12:31.04 bitrate=N/A speed=18.2x    frame=18270 fps=437 q=-0.0 size=N/A time=00:12:42.01 bitrate=N/A speed=18.2x    frame=18547 fps=438 q=-0.0 size=N/A time=00:12:53.56 bitrate=N/A speed=18.3x    frame=18809 fps=439 q=-0.0 size=N/A time=00:13:04.49 bitrate=N/A speed=18.3x    frame=19069 fps=440 q=-0.0 size=N/A time=00:13:15.33 bitrate=N/A speed=18.4x    frame=19341 fps=441 q=-0.0 size=N/A time=00:13:26.68 bitrate=N/A speed=18.4x    frame=19576 fps=441 q=-0.0 size=N/A time=00:13:36.48 bitrate=N/A speed=18.4x    frame=19815 fps=441 q=-0.0 size=N/A time=00:13:46.45 bitrate=N/A speed=18.4x    frame=20046 fps=442 q=-0.0 size=N/A time=00:13:56.08 bitrate=N/A speed=18.4x    frame=20313 fps=442 q=-0.0 size=N/A time=00:14:07.22 bitrate=N/A speed=18.4x    frame=20578 fps=443 q=-0.0 size=N/A time=00:14:18.27 bitrate=N/A speed=18.5x    frame=20837 fps=444 q=-0.0 size=N/A time=00:14:29.07 bitrate=N/A speed=18.5x    frame=21082 fps=444 q=-0.0 size=N/A time=00:14:39.29 bitrate=N/A speed=18.5x    frame=21350 fps=445 q=-0.0 size=N/A time=00:14:50.47 bitrate=N/A speed=18.6x    frame=21620 fps=446 q=-0.0 size=N/A time=00:15:01.77 bitrate=N/A speed=18.6x    frame=21899 fps=447 q=-0.0 size=N/A time=00:15:13.37 bitrate=N/A speed=18.6x    frame=22165 fps=448 q=-0.0 size=N/A time=00:15:24.46 bitrate=N/A speed=18.7x    frame=22444 fps=448 q=-0.0 size=N/A time=00:15:36.10 bitrate=N/A speed=18.7x    frame=22724 fps=449 q=-0.0 size=N/A time=00:15:47.78 bitrate=N/A speed=18.7x    frame=22995 fps=450 q=-0.0 size=N/A time=00:15:59.08 bitrate=N/A speed=18.8x    frame=23272 fps=451 q=-0.0 size=N/A time=00:16:10.63 bitrate=N/A speed=18.8x    frame=23551 fps=452 q=-0.0 size=N/A time=00:16:22.27 bitrate=N/A speed=18.9x    frame=23831 fps=453 q=-0.0 size=N/A time=00:16:33.95 bitrate=N/A speed=18.9x    frame=24091 fps=453 q=-0.0 size=N/A time=00:16:44.79 bitrate=N/A speed=18.9x    frame=24358 fps=454 q=-0.0 size=N/A time=00:16:55.93 bitrate=N/A speed=18.9x    frame=24618 fps=454 q=-0.0 size=N/A time=00:17:06.77 bitrate=N/A speed=  19x    frame=24886 fps=455 q=-0.0 size=N/A time=00:17:17.95 bitrate=N/A speed=  19x    frame=25139 fps=455 q=-0.0 size=N/A time=00:17:28.50 bitrate=N/A speed=  19x    frame=25407 fps=456 q=-0.0 size=N/A time=00:17:39.68 bitrate=N/A speed=  19x    frame=25667 fps=457 q=-0.0 size=N/A time=00:17:50.52 bitrate=N/A speed=  19x    frame=25933 fps=457 q=-0.0 size=N/A time=00:18:01.62 bitrate=N/A speed=19.1x    frame=26169 fps=457 q=-0.0 size=N/A time=00:18:11.46 bitrate=N/A speed=19.1x    frame=26388 fps=457 q=-0.0 size=N/A time=00:18:20.59 bitrate=N/A speed=  19x    frame=26633 fps=457 q=-0.0 size=N/A time=00:18:30.81 bitrate=N/A speed=19.1x    frame=26882 fps=457 q=-0.0 size=N/A time=00:18:41.20 bitrate=N/A speed=19.1x    frame=27171 fps=458 q=-0.0 size=N/A time=00:18:53.25 bitrate=N/A speed=19.1x    frame=27429 fps=458 q=-0.0 size=N/A time=00:19:04.01 bitrate=N/A speed=19.1x    frame=27721 fps=459 q=-0.0 size=N/A time=00:19:16.19 bitrate=N/A speed=19.2x    frame=27982 fps=460 q=-0.0 size=N/A time=00:19:27.08 bitrate=N/A speed=19.2x    frame=28249 fps=460 q=-0.0 size=N/A time=00:19:38.21 bitrate=N/A speed=19.2x    frame=28514 fps=461 q=-0.0 size=N/A time=00:19:49.27 bitrate=N/A speed=19.2x    frame=28791 fps=461 q=-0.0 size=N/A time=00:20:00.82 bitrate=N/A speed=19.2x    frame=29079 fps=462 q=-0.0 size=N/A time=00:20:12.83 bitrate=N/A speed=19.3x    frame=29322 fps=462 q=-0.0 size=N/A time=00:20:22.97 bitrate=N/A speed=19.3x    frame=29579 fps=462 q=-0.0 size=N/A time=00:20:33.69 bitrate=N/A speed=19.3x    frame=29867 fps=463 q=-0.0 size=N/A time=00:20:45.70 bitrate=N/A speed=19.3x    frame=30126 fps=464 q=-0.0 size=N/A time=00:20:56.50 bitrate=N/A speed=19.3x    frame=30353 fps=463 q=-0.0 size=N/A time=00:21:05.97 bitrate=N/A speed=19.3x    frame=30571 fps=463 q=-0.0 size=N/A time=00:21:15.06 bitrate=N/A speed=19.3x    frame=30758 fps=462 q=-0.0 size=N/A time=00:21:22.86 bitrate=N/A speed=19.3x    frame=30978 fps=462 q=-0.0 size=N/A time=00:21:32.04 bitrate=N/A speed=19.3x    frame=31192 fps=462 q=-0.0 size=N/A time=00:21:40.96 bitrate=N/A speed=19.3x    frame=31401 fps=461 q=-0.0 size=N/A time=00:21:49.68 bitrate=N/A speed=19.2x    frame=31596 fps=461 q=-0.0 size=N/A time=00:21:57.81 bitrate=N/A speed=19.2x    frame=31811 fps=460 q=-0.0 size=N/A time=00:22:06.78 bitrate=N/A speed=19.2x    frame=32020 fps=460 q=-0.0 size=N/A time=00:22:15.50 bitrate=N/A speed=19.2x    frame=32260 fps=460 q=-0.0 size=N/A time=00:22:25.51 bitrate=N/A speed=19.2x    frame=32516 fps=460 q=-0.0 size=N/A time=00:22:36.18 bitrate=N/A speed=19.2x    frame=32767 fps=460 q=-0.0 size=N/A time=00:22:46.65 bitrate=N/A speed=19.2x    frame=32931 fps=459 q=-0.0 size=N/A time=00:22:53.49 bitrate=N/A speed=19.2x    frame=33068 fps=458 q=-0.0 size=N/A time=00:22:59.21 bitrate=N/A speed=19.1x    frame=33241 fps=457 q=-0.0 size=N/A time=00:23:06.42 bitrate=N/A speed=19.1x    frame=33410 fps=456 q=-0.0 size=N/A time=00:23:13.47 bitrate=N/A speed=  19x    frame=33573 fps=455 q=-0.0 size=N/A time=00:23:20.27 bitrate=N/A speed=  19x    frame=33738 fps=454 q=-0.0 size=N/A time=00:23:27.15 bitrate=N/A speed=18.9x    frame=33915 fps=453 q=-0.0 size=N/A time=00:23:34.53 bitrate=N/A speed=18.9x    frame=34086 fps=453 q=-0.0 size=N/A time=00:23:41.67 bitrate=N/A speed=18.9x    frame=34233 fps=452 q=-0.0 size=N/A time=00:23:47.80 bitrate=N/A speed=18.8x    frame=34393 fps=451 q=-0.0 size=N/A time=00:23:54.47 bitrate=N/A speed=18.8x    [Parsed_psnr_10 @ 0000024705005900] PSNR y:46.986021 u:49.635348 v:49.707924 average:47.710893 min:34.983885 max:inf
[out#0/null @ 000002470466c100] video:14858KiB audio:270440KiB subtitle:0KiB other streams:0KiB global headers:0KiB muxing overhead: unknown
frame=34579 fps=451 q=-0.0 Lsize=N/A time=00:24:02.23 bitrate=N/A speed=18.8x    
